<?xml version="1.0" encoding="UTF-8"?>
<svg id="Calque_1" xmlns="http://www.w3.org/2000/svg" version="1.1" viewBox="0 0 427.2 28.8">
  <!-- Generator: Adobe Illustrator 30.0.0, SVG Export Plug-In . SVG Version: 2.1.1 Build 123)  -->
  <defs>
    <style>
      .st0 {
        fill: #a49797;
      }
    </style>
  </defs>
  <path class="st0" d="M14.5,17.6H6.3l-1.5,4.5H0L7.9.1h5.2l7.8,22h-5l-1.4-4.5ZM13.2,13.8l-2.7-8.7-2.8,8.7h5.6Z"/>
  <path class="st0" d="M31.3,9.8c-1.7,0-2.9.6-3.5,1.7-.3.6-.5,1.6-.5,2.9v7.8h-4.3V5.9h4.1v2.8c.7-1.1,1.2-1.8,1.7-2.2.8-.7,1.8-1,3.1-1s.1,0,.2,0c0,0,.2,0,.4,0v4.4c-.3,0-.5,0-.7,0-.2,0-.4,0-.5,0Z"/>
  <path class="st0" d="M49,11.7h-4.4c0-.6-.3-1.2-.6-1.6-.5-.7-1.2-1-2.2-1-1.4,0-2.4.7-2.9,2.1-.3.8-.4,1.8-.4,3s.1,2.2.4,2.9c.5,1.4,1.5,2,2.9,2s1.7-.3,2.1-.8c.4-.5.7-1.2.8-2.1h4.3c0,1.3-.6,2.5-1.4,3.7-1.3,1.9-3.3,2.8-5.9,2.8s-4.5-.8-5.8-2.3-1.9-3.6-1.9-6.1.7-5,2-6.5c1.4-1.6,3.2-2.3,5.6-2.3s3.7.5,5,1.4c1.3.9,2.1,2.5,2.3,4.9Z"/>
  <path class="st0" d="M66.4,12.6v9.6h-4.4v-9.9c0-.9-.1-1.6-.4-2.1-.4-.8-1.1-1.1-2.2-1.1s-2,.4-2.6,1.1c-.6.8-.9,1.8-.9,3.2v8.8h-4.2V.2h4.2v7.8c.6-.9,1.3-1.6,2.1-2,.8-.4,1.7-.6,2.6-.6s1.9.2,2.7.5c.8.3,1.5.9,2,1.6.4.6.7,1.2.8,1.9s.1,1.7.1,3.1Z"/>
  <path class="st0" d="M74.6,0v3.9h-4.3V0h4.3ZM74.6,5.9v16.3h-4.3V5.9h4.3Z"/>
  <path class="st0" d="M86,19.1v3.2h-2c-2,.1-3.4-.2-4.1-1-.5-.5-.7-1.2-.7-2.3v-10h-2.3v-3h2.3V1.5h4.2v4.5h2.6v3h-2.6v8.6c0,.7,0,1.1.3,1.2.2.2.7.2,1.6.2s.3,0,.4,0c.1,0,.3,0,.4,0Z"/>
  <path class="st0" d="M102.5,17.4c-.1,1-.6,1.9-1.5,2.9-1.4,1.6-3.3,2.4-5.9,2.4s-3.9-.7-5.5-2c-1.6-1.3-2.4-3.5-2.4-6.5s.7-5,2.1-6.5,3.3-2.3,5.6-2.3,2.6.3,3.7.8,2,1.3,2.7,2.4c.6,1,1.1,2.1,1.2,3.4.1.7.2,1.8.1,3.2h-11.2c0,1.6.6,2.8,1.5,3.4.6.4,1.3.6,2.1.6s1.6-.2,2.1-.7c.3-.3.6-.6.8-1.1h4.3ZM98.3,12.4c0-1.1-.4-2-1-2.6s-1.4-.9-2.3-.9-1.8.3-2.3.9c-.5.6-.9,1.5-1,2.5h6.6Z"/>
  <path class="st0" d="M119.5,11.7h-4.4c0-.6-.3-1.2-.6-1.6-.5-.7-1.2-1-2.2-1-1.4,0-2.4.7-2.9,2.1-.3.8-.4,1.8-.4,3s.1,2.2.4,2.9c.5,1.4,1.5,2,2.9,2s1.7-.3,2.1-.8.7-1.2.8-2.1h4.4c0,1.3-.6,2.5-1.4,3.7-1.3,1.9-3.3,2.8-5.9,2.8s-4.5-.8-5.8-2.3-1.9-3.6-1.9-6.1.7-5,2-6.5c1.4-1.6,3.2-2.3,5.7-2.3s3.7.5,5,1.4,2.1,2.5,2.3,4.9Z"/>
  <path class="st0" d="M129.7,19.1v3.2h-2c-2,.1-3.4-.2-4.1-1-.5-.5-.7-1.2-.7-2.3v-10h-2.3v-3h2.3V1.5h4.2v4.5h2.6v3h-2.6v8.6c0,.7,0,1.1.3,1.2.2.2.7.2,1.6.2s.3,0,.4,0c.1,0,.3,0,.4,0Z"/>
  <path class="st0" d="M142.7,19.9s-.1.2-.3.4c-.2.2-.3.5-.6.7-.7.6-1.3,1-1.9,1.2-.6.2-1.4.3-2.2.3-2.4,0-4-.9-4.9-2.6-.5-1-.7-2.4-.7-4.2V5.9h4.4v9.8c0,.9.1,1.6.3,2.1.4.8,1.2,1.2,2.3,1.2s2.5-.6,3-1.8c.3-.6.4-1.5.4-2.5V5.9h4.3v16.3h-4.1v-2.3Z"/>
  <path class="st0" d="M159,9.8c-1.7,0-2.9.6-3.5,1.7-.3.6-.5,1.6-.5,2.9v7.8h-4.3V5.9h4.1v2.8c.7-1.1,1.2-1.8,1.7-2.2.8-.7,1.8-1,3.1-1s.1,0,.2,0c0,0,.2,0,.4,0v4.4c-.3,0-.5,0-.7,0s-.4,0-.5,0Z"/>
  <path class="st0" d="M176.4,17.4c-.1,1-.6,1.9-1.5,2.9-1.4,1.6-3.3,2.4-5.9,2.4s-3.9-.7-5.5-2c-1.6-1.3-2.4-3.5-2.4-6.5s.7-5,2.1-6.5,3.3-2.3,5.6-2.3,2.6.3,3.7.8c1.1.5,2,1.3,2.7,2.4.6,1,1.1,2.1,1.2,3.4.1.7.2,1.8.1,3.2h-11.2c0,1.6.6,2.8,1.5,3.4.6.4,1.3.6,2.1.6s1.6-.2,2.1-.7c.3-.3.6-.6.8-1.1h4.4ZM172.2,12.4c0-1.1-.4-2-1-2.6-.6-.6-1.4-.9-2.3-.9s-1.8.3-2.3.9-.9,1.5-1,2.5h6.6Z"/>
  <path class="st0" d="M187.6.1h4.6v22h-4.6V.1Z"/>
  <path class="st0" d="M203.7,9c-1.4,0-2.4.6-3,1.8-.3.6-.4,1.5-.4,2.5v8.8h-4.2V5.9h4.1v2.4c.5-.8,1.1-1.4,1.6-1.8.9-.7,2-1,3.3-1s3.1.4,4.1,1.3,1.6,2.3,1.6,4.4v11h-4.4v-9.9c0-.9-.1-1.5-.3-2-.4-.8-1.2-1.3-2.4-1.3Z"/>
  <path class="st0" d="M222,19.1v3.2h-2c-2,.1-3.4-.2-4.1-1-.5-.5-.7-1.2-.7-2.3v-10h-2.3v-3h2.3V1.5h4.2v4.5h2.6v3h-2.6v8.6c0,.7,0,1.1.3,1.2.2.2.7.2,1.6.2s.3,0,.4,0c.1,0,.3,0,.4,0Z"/>
  <path class="st0" d="M238.5,17.4c-.1,1-.6,1.9-1.5,2.9-1.4,1.6-3.3,2.4-5.9,2.4s-3.9-.7-5.5-2c-1.6-1.3-2.4-3.5-2.4-6.5s.7-5,2.1-6.5,3.3-2.3,5.6-2.3,2.6.3,3.7.8c1.1.5,2,1.3,2.7,2.4.6,1,1.1,2.1,1.2,3.4.1.7.2,1.8.1,3.2h-11.2c0,1.6.6,2.8,1.5,3.4.6.4,1.3.6,2.1.6s1.6-.2,2.1-.7c.3-.3.6-.6.8-1.1h4.4ZM234.2,12.4c0-1.1-.4-2-1-2.6-.6-.6-1.4-.9-2.3-.9s-1.7.3-2.3.9c-.5.6-.9,1.5-1,2.5h6.6Z"/>
  <path class="st0" d="M249.5,9.8c-1.7,0-2.9.6-3.5,1.7-.3.6-.5,1.6-.5,2.9v7.8h-4.3V5.9h4.1v2.8c.7-1.1,1.2-1.8,1.7-2.2.8-.7,1.8-1,3.1-1s.1,0,.2,0,.2,0,.4,0v4.4c-.3,0-.5,0-.7,0s-.4,0-.5,0Z"/>
  <path class="st0" d="M257.5,0v3.9h-4.3V0h4.3ZM257.5,5.9v16.3h-4.3V5.9h4.3Z"/>
  <path class="st0" d="M275,7.9c1.4,1.7,2.1,3.8,2.1,6.1s-.7,4.4-2.1,6.1c-1.4,1.7-3.5,2.5-6.3,2.5s-4.9-.8-6.3-2.5c-1.4-1.7-2.1-3.7-2.1-6.1s.7-4.4,2.1-6.1c1.4-1.7,3.5-2.6,6.3-2.6s4.9.9,6.3,2.6ZM268.7,9c-1.2,0-2.2.4-2.9,1.3-.7.9-1,2.1-1,3.8s.3,2.9,1,3.8c.7.9,1.6,1.3,2.9,1.3s2.2-.4,2.9-1.3c.7-.9,1-2.1,1-3.8s-.3-2.9-1-3.8-1.6-1.3-2.9-1.3Z"/>
  <path class="st0" d="M288.1,9.8c-1.7,0-2.9.6-3.5,1.7-.3.6-.5,1.6-.5,2.9v7.8h-4.3V5.9h4.1v2.8c.7-1.1,1.2-1.8,1.7-2.2.8-.7,1.8-1,3.1-1s.1,0,.2,0,.2,0,.4,0v4.4c-.3,0-.5,0-.7,0s-.4,0-.5,0Z"/>
  <path class="st0" d="M309.8,22.2h-9.5V.1h9.5c1.4,0,2.5.2,3.4.5,1.5.5,2.8,1.4,3.8,2.8.8,1.1,1.3,2.3,1.6,3.6s.4,2.5.4,3.6c0,2.9-.6,5.4-1.8,7.4-1.6,2.7-4.1,4.1-7.4,4.1ZM313.2,5.8c-.7-1.2-2.1-1.8-4.2-1.8h-4.2v14.4h4.2c2.2,0,3.7-1.1,4.5-3.2.5-1.2.7-2.6.7-4.2s-.3-4-1-5.2Z"/>
  <path class="st0" d="M335.8,17.4c-.1,1-.6,1.9-1.5,2.9-1.4,1.6-3.3,2.4-5.9,2.4s-3.9-.7-5.5-2c-1.6-1.3-2.4-3.5-2.4-6.5s.7-5,2.1-6.5,3.3-2.3,5.6-2.3,2.6.3,3.7.8c1.1.5,2,1.3,2.7,2.4.6,1,1.1,2.1,1.2,3.4.1.7.2,1.8.1,3.2h-11.2c0,1.6.6,2.8,1.5,3.4.6.4,1.3.6,2.1.6s1.6-.2,2.1-.7c.3-.3.6-.6.8-1.1h4.4ZM331.6,12.4c0-1.1-.4-2-1-2.6-.6-.6-1.4-.9-2.3-.9s-1.7.3-2.3.9c-.5.6-.9,1.5-1,2.5h6.6Z"/>
  <path class="st0" d="M350,6.6c1.3.8,2,2.2,2.2,4.2h-4.3c0-.5-.2-1-.5-1.3-.5-.6-1.3-.9-2.4-.9s-1.6.1-2,.4c-.4.3-.6.6-.6,1s.2.8.6,1.1c.4.2,1.9.6,4.4,1.2,1.7.4,3,1,3.8,1.8.8.8,1.3,1.8,1.3,3.1s-.6,2.9-1.8,4c-1.2,1-3.1,1.5-5.6,1.5s-4.5-.5-5.7-1.6c-1.2-1.1-1.8-2.5-1.8-4.1h4.3c0,.8.3,1.3.6,1.6.5.6,1.5.9,2.9.9s1.5-.1,2-.4c.5-.2.7-.6.7-1.1s-.2-.8-.6-1.1-1.9-.7-4.4-1.3c-1.8-.5-3.1-1-3.9-1.7-.8-.7-1.1-1.7-1.1-2.9s.6-2.8,1.8-3.9c1.2-1.1,2.8-1.6,5-1.6s3.7.4,5,1.2Z"/>
  <path class="st0" d="M360,0v3.9h-4.3V0h4.3ZM360,5.9v16.3h-4.3V5.9h4.3Z"/>
  <path class="st0" d="M368.5,25c.5.4,1.2.6,2.3.6s2.6-.5,3.1-1.5c.3-.7.5-1.8.5-3.3v-1c-.4.7-.8,1.2-1.3,1.6-.8.6-1.9,1-3.3,1-2.1,0-3.8-.7-5-2.2-1.3-1.5-1.9-3.5-1.9-6s.6-4.5,1.8-6.1c1.2-1.6,2.9-2.5,5.1-2.5s1.5.1,2.1.4c1,.4,1.9,1.2,2.5,2.4v-2.3h4.1v15.5c0,2.1-.4,3.7-1.1,4.8-1.2,1.8-3.5,2.8-7,2.8s-3.8-.4-5.1-1.2-2-2-2.2-3.7h4.6c.1.5.3.9.6,1.1ZM367.8,16.6c.6,1.4,1.6,2.1,3.1,2.1s1.8-.4,2.5-1.1c.7-.8,1-2,1-3.6s-.3-2.7-1-3.5c-.7-.8-1.5-1.2-2.6-1.2s-2.5.7-3.1,2.1c-.3.7-.4,1.7-.4,2.8s.2,1.8.5,2.5Z"/>
  <path class="st0" d="M390.1,9c-1.4,0-2.4.6-3,1.8-.3.6-.4,1.5-.4,2.5v8.8h-4.2V5.9h4.1v2.4c.5-.8,1.1-1.4,1.6-1.8.9-.7,2-1,3.3-1s3.1.4,4.1,1.3c1.1.9,1.6,2.3,1.6,4.4v11h-4.4v-9.9c0-.9-.1-1.5-.3-2-.4-.8-1.2-1.3-2.4-1.3Z"/>
  <path class="st0" d="M414.9,17.4c-.1,1-.6,1.9-1.5,2.9-1.4,1.6-3.3,2.4-5.9,2.4s-3.9-.7-5.5-2c-1.6-1.3-2.4-3.5-2.4-6.5s.7-5,2.1-6.5,3.3-2.3,5.6-2.3,2.6.3,3.7.8,2,1.3,2.7,2.4c.6,1,1.1,2.1,1.2,3.4.1.7.2,1.8.1,3.2h-11.2c0,1.6.6,2.8,1.5,3.4.6.4,1.3.6,2.1.6s1.6-.2,2.1-.7c.3-.3.6-.6.8-1.1h4.3ZM410.7,12.4c0-1.1-.4-2-1-2.6s-1.4-.9-2.3-.9-1.8.3-2.3.9c-.5.6-.9,1.5-1,2.5h6.6Z"/>
  <path class="st0" d="M426,9.8c-1.7,0-2.9.6-3.5,1.7-.3.6-.5,1.6-.5,2.9v7.8h-4.3V5.9h4.1v2.8c.7-1.1,1.2-1.8,1.7-2.2.8-.7,1.8-1,3.1-1s.1,0,.2,0c0,0,.2,0,.4,0v4.4c-.3,0-.5,0-.7,0-.2,0-.4,0-.5,0Z"/>
</svg>