<?xml version="1.0" encoding="UTF-8"?>
<svg id="Calque_1" xmlns="http://www.w3.org/2000/svg" version="1.1" viewBox="0 0 238.4 79.6">
  <!-- Generator: Adobe Illustrator 30.0.0, SVG Export Plug-In . SVG Version: 2.1.1 Build 123)  -->
  <defs>
  </defs>
  <path fill="currentColor" class="st0" d="M52.2,63.2h-29.3l-5.5,16.4H0L28.4,0h18.8l28.2,79.6h-18l-5.1-16.4ZM47.6,49.5l-9.9-31.3-10.3,31.3h20.2Z"/>
  <path fill="currentColor" class="st0" d="M97.7,79.6h-15.5V0h24.2l14.5,62.6L135.2,0h23.9v79.6h-15.5V25.7c0-1.5,0-3.7,0-6.5,0-2.8,0-4.9,0-6.5l-15.1,66.8h-16.1l-15-66.8c0,1.5,0,3.7,0,6.5,0,2.8,0,5,0,6.5v53.8Z"/>
  <path fill="currentColor" class="st0" d="M204.8,79.6h-34.3V0h34.3c4.9,0,9,.6,12.3,1.7,5.6,1.8,10.1,5.2,13.5,10.1,2.8,4,4.7,8.2,5.7,12.8,1,4.6,1.5,9,1.5,13.2,0,10.6-2.1,19.5-6.4,26.9-5.8,9.9-14.6,14.8-26.7,14.8ZM217.2,20.3c-2.6-4.3-7.6-6.5-15.2-6.5h-15.3v51.9h15.3c7.8,0,13.3-3.9,16.4-11.6,1.7-4.2,2.5-9.3,2.5-15.2s-1.3-14.3-3.8-18.7Z"/>
</svg>