<svg width="243" height="15" viewBox="0 0 243 15" fill="currentColor" xmlns="http://www.w3.org/2000/svg">
<g clip-path="url(#clip0_4131_2472)">
<path d="M6.91828 8.89235H3.02675L2.30609 11.0543H0L3.7474 0.460697H6.26969L10.0171 11.0543H7.63893L6.91828 8.89235ZM6.34175 7.01865L4.97251 2.83885L3.67533 7.01865H6.34175Z" fill="currentColor"/>
<path d="M13.3321 11.0543H11.2422V0.460697H14.4851L16.4309 8.82028L18.3767 0.460697H21.5476V11.0543H19.4577V3.84777C19.4577 3.63157 19.4577 3.34331 19.4577 2.98299C19.4577 2.62266 19.4577 2.3344 19.4577 2.1182L17.4398 10.9822H15.2779L13.3321 2.19027C13.3321 2.40646 13.3321 2.69472 13.3321 3.05505C13.3321 3.41538 13.3321 3.70364 13.3321 3.91984V11.0543Z" fill="currentColor"/>
<path d="M28.0334 11.0543H23.4933V0.460697H28.0334C28.682 0.460697 29.2585 0.532763 29.6909 0.676893C30.4116 0.893089 31.0602 1.39755 31.4926 2.04614C31.8529 2.55059 32.1412 3.12712 32.2132 3.7757C32.3574 4.35223 32.4294 4.92875 32.4294 5.50527C32.4294 6.94658 32.1412 8.09963 31.5646 9.10854C30.844 10.4057 29.6189 11.0543 28.0334 11.0543ZM29.6909 3.12712C29.3306 2.55059 28.682 2.26233 27.6731 2.26233H25.6553V9.18061H27.6731C28.682 9.18061 29.4747 8.67615 29.8351 7.66723C30.0513 7.09071 30.1954 6.44212 30.1954 5.6494C30.1954 4.56842 29.9792 3.70364 29.6909 3.12712Z" fill="currentColor"/>
<path d="M43.7437 8.89235H39.8522L39.1315 11.0543H36.8254L40.5728 0.460697H43.0951L46.8425 11.0543H44.4643L43.7437 8.89235ZM43.1672 7.01865L41.7979 2.83885L40.4287 7.01865H43.1672Z" fill="currentColor"/>
<path d="M51.8871 5.07288C51.0944 5.07288 50.5178 5.36114 50.2296 5.8656C50.0854 6.15386 50.0134 6.65832 50.0134 7.23484V10.9822H47.9235V3.19918H49.8692V4.56842C50.1575 4.06397 50.4458 3.70364 50.662 3.48744C51.0223 3.19918 51.5267 2.98298 52.1753 2.98298C52.2474 2.98298 52.2474 2.98298 52.2474 2.98298C52.2474 2.98298 52.3195 2.98298 52.3915 2.98298V5.07288C52.2474 5.07288 52.1753 5.07288 52.0312 5.07288C52.0312 5.07288 51.9591 5.07288 51.8871 5.07288Z" fill="currentColor"/>
<path d="M60.3908 6.00973H58.3009C58.2288 5.72147 58.1568 5.43321 58.0126 5.21701C57.7964 4.92875 57.4361 4.71255 56.9316 4.71255C56.211 4.71255 55.7786 5.07288 55.4903 5.72147C55.3462 6.0818 55.2741 6.58625 55.2741 7.16278C55.2741 7.7393 55.3462 8.17169 55.4903 8.53202C55.7065 9.18061 56.211 9.54093 56.8596 9.54093C57.364 9.54093 57.6523 9.3968 57.8685 9.18061C58.0847 8.89235 58.1568 8.60408 58.2288 8.17169H60.3187C60.2467 8.82028 60.0305 9.3968 59.6701 9.97333C59.0215 10.8381 58.0847 11.3426 56.7875 11.3426C55.5624 11.3426 54.6256 10.9822 53.977 10.1895C53.3284 9.3968 53.1122 8.45995 53.1122 7.30691C53.1122 5.93767 53.4725 4.92875 54.1211 4.13603C54.7697 3.34331 55.7065 2.98298 56.8596 2.98298C57.8685 2.98298 58.6612 3.19918 59.2377 3.63157C59.8863 4.13603 60.2467 4.92875 60.3908 6.00973Z" fill="currentColor"/>
<path d="M68.7504 6.44212V11.0543H66.6605V6.29799C66.6605 5.8656 66.5884 5.50527 66.4443 5.28908C66.3001 4.92875 65.9398 4.71255 65.4354 4.71255C64.8588 4.71255 64.4985 4.92875 64.2102 5.28908C63.922 5.6494 63.7779 6.15386 63.7779 6.80245V11.0543H61.76V0.460697H63.7779V4.2081C64.0661 3.7757 64.4264 3.41538 64.7868 3.27125C65.1471 3.12712 65.5795 2.98299 66.0119 2.98299C66.5163 2.98299 66.9487 3.05505 67.3091 3.19918C67.6694 3.34331 68.0297 3.63157 68.318 3.9919C68.5342 4.28016 68.6783 4.56842 68.6783 4.92875C68.7504 5.21701 68.7504 5.72147 68.7504 6.44212Z" fill="currentColor"/>
<path d="M72.714 0.388632V2.26233H70.6241V0.388632H72.714ZM72.714 3.19918V11.0543H70.6241V3.19918H72.714Z" fill="currentColor"/>
<path d="M78.1909 9.613V11.1264H77.2541C76.3172 11.1264 75.5966 10.9822 75.2363 10.6219C75.0201 10.4057 74.8759 10.0454 74.8759 9.54093V4.71255H73.795V3.27125H74.8759V1.10929H76.8938V3.27125H78.1909V4.71255H76.8938V8.82028C76.8938 9.10854 76.9658 9.32474 77.0379 9.3968C77.11 9.46887 77.3982 9.54093 77.7585 9.54093C77.8306 9.54093 77.9027 9.54093 77.9747 9.54093C78.0468 9.613 78.1189 9.613 78.1909 9.613Z" fill="currentColor"/>
<path d="M86.1902 8.74821C86.1181 9.18061 85.9019 9.68506 85.4696 10.1895C84.821 10.9822 83.8841 11.3426 82.659 11.3426C81.6501 11.3426 80.7853 11.0543 79.9926 10.4057C79.1999 9.75713 78.8395 8.74821 78.8395 7.30691C78.8395 5.93766 79.1999 4.92875 79.8485 4.2081C80.5691 3.48744 81.4339 3.12712 82.5149 3.12712C83.1635 3.12712 83.74 3.27125 84.2444 3.48744C84.7489 3.70364 85.1813 4.13603 85.5416 4.64049C85.8299 5.07288 86.0461 5.6494 86.1181 6.22593C86.1902 6.58625 86.1902 7.09071 86.1902 7.81136H80.8574C80.8574 8.60408 81.1456 9.18061 81.578 9.46887C81.8663 9.68506 82.2266 9.75713 82.5869 9.75713C83.0193 9.75713 83.3797 9.613 83.5959 9.3968C83.74 9.25267 83.8841 9.10854 83.9562 8.89234H86.1902V8.74821ZM84.1003 6.37006C84.1003 5.79353 83.8841 5.43321 83.5959 5.14495C83.3076 4.85668 82.9473 4.71255 82.5149 4.71255C82.0104 4.71255 81.6501 4.85668 81.4339 5.14495C81.1456 5.43321 81.0015 5.8656 80.9294 6.37006H84.1003Z" fill="currentColor"/>
<path d="M94.3336 6.00973H92.2437C92.1716 5.72147 92.0996 5.43321 91.9554 5.21701C91.7392 4.92875 91.3789 4.71255 90.8745 4.71255C90.1538 4.71255 89.7214 5.07288 89.4331 5.72147C89.289 6.0818 89.217 6.58625 89.217 7.16278C89.217 7.7393 89.289 8.17169 89.4331 8.53202C89.6493 9.18061 90.1538 9.54093 90.8024 9.54093C91.3069 9.54093 91.5951 9.3968 91.8113 9.18061C92.0275 8.89235 92.0996 8.60408 92.1716 8.17169H94.2615C94.1895 8.82028 93.9733 9.3968 93.6129 9.97333C92.9644 10.8381 92.0275 11.3426 90.7303 11.3426C89.5052 11.3426 88.5684 10.9822 87.9198 10.1895C87.2712 9.3968 87.055 8.45995 87.055 7.30691C87.055 5.93767 87.4153 4.92875 88.0639 4.13603C88.7125 3.34331 89.6493 2.98298 90.8024 2.98298C91.8113 2.98298 92.604 3.19918 93.1806 3.63157C93.8291 4.13603 94.1895 4.92875 94.3336 6.00973Z" fill="currentColor"/>
<path d="M99.234 9.613V11.1264H98.2972C97.3603 11.1264 96.6397 10.9822 96.2794 10.6219C96.0632 10.4057 95.919 10.0454 95.919 9.54093V4.71255H94.838V3.27125H95.919V1.10929H97.9368V3.27125H99.234V4.71255H98.0089V8.82028C98.0089 9.10854 98.081 9.32474 98.153 9.3968C98.2251 9.46887 98.5134 9.54093 98.8737 9.54093C98.9458 9.54093 99.0178 9.54093 99.0899 9.54093C99.0899 9.613 99.162 9.613 99.234 9.613Z" fill="currentColor"/>
<path d="M105.504 9.90126C105.504 9.90126 105.432 9.97333 105.36 10.1175C105.288 10.2616 105.215 10.3337 105.071 10.4057C104.783 10.694 104.423 10.9102 104.134 10.9822C103.846 11.0543 103.486 11.1264 103.054 11.1264C101.9 11.1264 101.108 10.694 100.747 9.90126C100.531 9.46887 100.387 8.74821 100.387 7.88343V3.19918H102.477V7.88343C102.477 8.31582 102.549 8.67615 102.621 8.89235C102.837 9.32474 103.198 9.46887 103.702 9.46887C104.423 9.46887 104.855 9.18061 105.143 8.60408C105.288 8.31582 105.36 7.88343 105.36 7.37897V3.19918H107.449V11.0543H105.432V9.90126H105.504Z" fill="currentColor"/>
<path d="M113.359 5.07288C112.566 5.07288 111.99 5.36114 111.701 5.8656C111.557 6.15386 111.485 6.65832 111.485 7.23484V10.9822H109.395V3.19918H111.341V4.56842C111.629 4.06397 111.918 3.70364 112.134 3.48744C112.494 3.19918 112.999 2.98298 113.647 2.98298C113.719 2.98298 113.719 2.98298 113.719 2.98298C113.719 2.98298 113.791 2.98298 113.863 2.98298V5.07288C113.719 5.07288 113.647 5.07288 113.503 5.07288C113.503 5.07288 113.431 5.07288 113.359 5.07288Z" fill="currentColor"/>
<path d="M121.79 8.74821C121.718 9.18061 121.502 9.68506 121.07 10.1895C120.421 10.9822 119.484 11.3426 118.259 11.3426C117.25 11.3426 116.386 11.0543 115.593 10.4057C114.8 9.75713 114.44 8.74821 114.44 7.30691C114.44 5.93766 114.8 4.92875 115.449 4.2081C116.169 3.48744 117.034 3.12712 118.115 3.12712C118.764 3.12712 119.34 3.27125 119.845 3.48744C120.349 3.70364 120.782 4.13603 121.142 4.64049C121.43 5.07288 121.646 5.6494 121.718 6.22593C121.79 6.58625 121.79 7.09071 121.79 7.81136H116.458C116.458 8.60408 116.746 9.18061 117.178 9.46887C117.467 9.68506 117.827 9.75713 118.187 9.75713C118.62 9.75713 118.98 9.613 119.196 9.3968C119.34 9.25267 119.484 9.10854 119.556 8.89234H121.79V8.74821ZM119.701 6.37006C119.701 5.79353 119.484 5.43321 119.196 5.14495C118.908 4.85668 118.548 4.71255 118.115 4.71255C117.611 4.71255 117.25 4.85668 117.034 5.14495C116.746 5.43321 116.602 5.8656 116.53 6.37006H119.701Z" fill="currentColor"/>
<path d="M127.195 0.460697H129.357V11.0543H127.195V0.460697Z" fill="currentColor"/>
<path d="M134.906 4.71255C134.186 4.71255 133.753 5.00081 133.465 5.57734C133.321 5.8656 133.249 6.29799 133.249 6.80245V11.0543H131.231V3.19918H133.177V4.35223C133.465 3.91983 133.681 3.63157 133.897 3.48744C134.33 3.19918 134.834 2.98298 135.483 2.98298C136.276 2.98298 136.924 3.19918 137.501 3.63157C138.005 4.06397 138.293 4.78462 138.293 5.72147V10.9822H136.204V6.29799C136.204 5.8656 136.132 5.57734 136.059 5.36114C135.843 4.92875 135.411 4.71255 134.906 4.71255Z" fill="currentColor"/>
<path d="M143.698 9.613V11.1264H142.762C141.825 11.1264 141.104 10.9822 140.744 10.6219C140.527 10.4057 140.383 10.0454 140.383 9.54093V4.71255H139.302V3.27125H140.383V1.10929H142.401V3.27125H143.698V4.71255H142.401V8.82028C142.401 9.10854 142.473 9.32474 142.545 9.3968C142.617 9.46887 142.906 9.54093 143.266 9.54093C143.338 9.54093 143.41 9.54093 143.482 9.54093C143.554 9.613 143.626 9.613 143.698 9.613Z" fill="currentColor"/>
<path d="M151.626 8.74821C151.553 9.18061 151.337 9.68506 150.905 10.1895C150.256 10.9822 149.319 11.3426 148.094 11.3426C147.085 11.3426 146.221 11.0543 145.428 10.4057C144.635 9.75713 144.275 8.74821 144.275 7.30691C144.275 5.93766 144.635 4.92875 145.284 4.2081C146.004 3.48744 146.869 3.12712 147.95 3.12712C148.599 3.12712 149.175 3.27125 149.68 3.48744C150.184 3.70364 150.617 4.13603 150.977 4.64049C151.265 5.07288 151.481 5.6494 151.554 6.22593C151.626 6.58625 151.626 7.09071 151.626 7.81136H146.293C146.293 8.60408 146.581 9.18061 147.013 9.46887C147.302 9.68506 147.662 9.75713 148.022 9.75713C148.455 9.75713 148.815 9.613 149.031 9.3968C149.175 9.25267 149.319 9.10854 149.392 8.89234H151.626V8.74821ZM149.608 6.37006C149.608 5.79353 149.392 5.43321 149.103 5.14495C148.815 4.85668 148.455 4.71255 148.022 4.71255C147.518 4.71255 147.158 4.85668 146.941 5.14495C146.653 5.43321 146.509 5.8656 146.437 6.37006H149.608Z" fill="currentColor"/>
<path d="M156.958 5.07288C156.166 5.07288 155.589 5.36114 155.301 5.8656C155.157 6.15386 155.085 6.65832 155.085 7.23484V10.9822H152.995V3.19918H154.941V4.56842C155.229 4.06397 155.517 3.70364 155.733 3.48744C156.094 3.19918 156.598 2.98298 157.247 2.98298C157.319 2.98298 157.319 2.98298 157.319 2.98298C157.319 2.98298 157.391 2.98298 157.463 2.98298V5.07288C157.319 5.07288 157.247 5.07288 157.103 5.07288C156.958 5.07288 157.03 5.07288 156.958 5.07288Z" fill="currentColor"/>
<path d="M160.778 0.388632V2.26233H158.688V0.388632H160.778ZM160.778 3.19918V11.0543H158.688V3.19918H160.778Z" fill="currentColor"/>
<path d="M169.21 4.2081C169.858 5.00082 170.218 6.00973 170.218 7.16278C170.218 8.31582 169.858 9.32474 169.21 10.1175C168.561 10.9102 167.552 11.3426 166.183 11.3426C164.814 11.3426 163.805 10.9102 163.156 10.1175C162.507 9.32474 162.147 8.31582 162.147 7.16278C162.147 6.00973 162.507 5.07288 163.156 4.2081C163.805 3.34331 164.814 2.98298 166.183 2.98298C167.552 2.98298 168.561 3.34331 169.21 4.2081ZM166.183 4.71255C165.606 4.71255 165.102 4.92875 164.814 5.36114C164.525 5.79353 164.309 6.37006 164.309 7.16278C164.309 7.9555 164.453 8.53202 164.814 8.96441C165.102 9.3968 165.606 9.613 166.183 9.613C166.759 9.613 167.264 9.3968 167.552 8.96441C167.84 8.53202 168.056 7.9555 168.056 7.16278C168.056 6.37006 167.912 5.79353 167.552 5.36114C167.192 4.92875 166.831 4.71255 166.183 4.71255Z" fill="currentColor"/>
<path d="M175.551 5.07288C174.759 5.07288 174.182 5.36114 173.894 5.8656C173.75 6.15386 173.678 6.65832 173.678 7.23484V10.9822H171.588V3.19918H173.533V4.56842C173.822 4.06397 174.11 3.70364 174.326 3.48744C174.686 3.19918 175.191 2.98298 175.84 2.98298C175.912 2.98298 175.912 2.98298 175.912 2.98298C175.912 2.98298 175.984 2.98298 176.056 2.98298V5.07288C175.912 5.07288 175.84 5.07288 175.695 5.07288C175.695 5.07288 175.623 5.07288 175.551 5.07288Z" fill="currentColor"/>
<path d="M186.001 11.0543H181.461V0.460697H186.001C186.649 0.460697 187.226 0.532763 187.658 0.676893C188.379 0.893089 189.027 1.39755 189.46 2.04614C189.82 2.55059 190.108 3.12712 190.181 3.7757C190.325 4.42429 190.397 5.00082 190.397 5.50527C190.397 6.94658 190.108 8.09963 189.532 9.10854C188.739 10.4057 187.586 11.0543 186.001 11.0543ZM187.658 3.12712C187.298 2.55059 186.649 2.26233 185.64 2.26233H183.623V9.18061H185.64C186.649 9.18061 187.442 8.67615 187.802 7.66723C188.019 7.09071 188.163 6.44212 188.163 5.6494C188.163 4.56842 187.947 3.70364 187.658 3.12712Z" fill="currentColor"/>
<path d="M198.54 8.74821C198.468 9.18061 198.252 9.68506 197.819 10.1895C197.171 10.9822 196.234 11.3426 195.009 11.3426C194 11.3426 193.135 11.0543 192.343 10.4057C191.55 9.75713 191.189 8.74821 191.189 7.30691C191.189 5.93766 191.55 4.92875 192.198 4.2081C192.919 3.48744 193.784 3.12712 194.865 3.12712C195.513 3.12712 196.09 3.27125 196.594 3.48744C197.099 3.70364 197.531 4.13603 197.892 4.64049C198.18 5.07288 198.396 5.6494 198.468 6.22593C198.54 6.58625 198.54 7.09071 198.54 7.81136H193.207C193.207 8.60408 193.496 9.18061 193.928 9.46887C194.216 9.68506 194.577 9.75713 194.937 9.75713C195.369 9.75713 195.73 9.613 195.946 9.3968C196.09 9.25267 196.234 9.10854 196.306 8.89234H198.54V8.74821ZM196.522 6.37006C196.522 5.79353 196.306 5.43321 196.018 5.14495C195.73 4.85668 195.369 4.71255 194.937 4.71255C194.432 4.71255 194.072 4.85668 193.856 5.14495C193.568 5.43321 193.423 5.8656 193.351 6.37006H196.522Z" fill="currentColor"/>
<path d="M205.314 3.55951C205.891 3.91983 206.251 4.64049 206.395 5.57734H204.377C204.377 5.28908 204.305 5.07288 204.161 4.92875C203.945 4.64049 203.585 4.49636 203.008 4.49636C202.576 4.49636 202.215 4.56842 202.071 4.71255C201.855 4.85668 201.783 5.00081 201.783 5.21701C201.783 5.43321 201.855 5.6494 202.071 5.72147C202.288 5.8656 203.008 6.00973 204.233 6.29799C205.026 6.51419 205.675 6.80245 206.035 7.16278C206.467 7.5231 206.611 8.02756 206.611 8.60408C206.611 9.3968 206.323 10.0454 205.747 10.4778C205.17 10.9102 204.305 11.1984 203.08 11.1984C201.855 11.1984 200.918 10.9102 200.342 10.4057C199.765 9.90126 199.477 9.25267 199.477 8.38789H201.567C201.639 8.74821 201.711 9.03648 201.855 9.18061C202.143 9.46887 202.576 9.613 203.296 9.613C203.729 9.613 204.017 9.54093 204.233 9.46887C204.449 9.3968 204.594 9.18061 204.594 8.96441C204.594 8.74821 204.522 8.53202 204.305 8.45995C204.089 8.38789 203.368 8.09963 202.143 7.81136C201.279 7.59517 200.63 7.30691 200.27 7.01865C199.909 6.65832 199.693 6.22593 199.693 5.57734C199.693 4.85668 199.981 4.2081 200.558 3.70364C201.134 3.19918 201.927 2.91092 202.936 2.91092C203.873 2.98298 204.666 3.19918 205.314 3.55951Z" fill="currentColor"/>
<path d="M210.143 0.388632V2.26233H208.053V0.388632H210.143ZM210.143 3.19918V11.0543H208.053V3.19918H210.143Z" fill="currentColor"/>
<path d="M214.25 12.4235C214.467 12.6397 214.827 12.7118 215.331 12.7118C216.052 12.7118 216.556 12.4956 216.845 11.9912C216.989 11.7029 217.061 11.1264 217.061 10.4057V9.90126C216.845 10.2616 216.629 10.4778 216.412 10.6219C215.98 10.9102 215.475 11.0543 214.827 11.0543C213.818 11.0543 213.025 10.694 212.449 9.97333C211.872 9.25267 211.584 8.31582 211.584 7.09071C211.584 5.93767 211.872 4.92875 212.449 4.13603C213.025 3.34331 213.818 2.98298 214.899 2.98298C215.259 2.98298 215.62 3.05505 215.908 3.12712C216.412 3.34331 216.773 3.70364 217.133 4.28016V3.19918H219.151V10.6219C219.151 11.6308 219.007 12.4235 218.646 12.928C218.07 13.7928 216.917 14.2252 215.259 14.2252C214.25 14.2252 213.458 14.009 212.809 13.6487C212.16 13.2883 211.8 12.6397 211.728 11.9191H213.962C214.034 12.1353 214.106 12.2794 214.25 12.4235ZM213.89 8.38789C214.178 9.03648 214.683 9.3968 215.403 9.3968C215.908 9.3968 216.268 9.25267 216.629 8.82028C216.989 8.45995 217.133 7.88343 217.133 7.09071C217.133 6.37006 216.989 5.79353 216.629 5.36114C216.34 5.00082 215.908 4.78462 215.403 4.78462C214.683 4.78462 214.178 5.14495 213.89 5.79353C213.746 6.15386 213.674 6.58625 213.674 7.09071C213.674 7.59517 213.746 8.02756 213.89 8.38789Z" fill="currentColor"/>
<path d="M224.628 4.71255C223.907 4.71255 223.475 5.00081 223.186 5.57734C223.042 5.8656 222.97 6.29799 222.97 6.80245V11.0543H220.952V3.19918H222.898V4.35223C223.186 3.91983 223.403 3.63157 223.619 3.48744C224.051 3.19918 224.556 2.98298 225.204 2.98298C225.997 2.98298 226.646 3.19918 227.222 3.63157C227.727 4.06397 228.015 4.78462 228.015 5.72147V10.9822H225.925V6.29799C225.925 5.8656 225.853 5.57734 225.781 5.36114C225.565 4.92875 225.204 4.71255 224.628 4.71255Z" fill="currentColor"/>
<path d="M236.591 8.74821C236.519 9.18061 236.302 9.68506 235.87 10.1895C235.221 10.9822 234.285 11.3426 233.059 11.3426C232.051 11.3426 231.186 11.0543 230.393 10.4057C229.6 9.75713 229.24 8.74821 229.24 7.30691C229.24 5.93766 229.6 4.92875 230.249 4.2081C230.97 3.48744 231.834 3.12712 232.915 3.12712C233.564 3.12712 234.14 3.27125 234.645 3.48744C235.149 3.70364 235.582 4.13603 235.942 4.64049C236.23 5.07288 236.447 5.6494 236.519 6.22593C236.591 6.58625 236.591 7.09071 236.591 7.81136H231.33C231.33 8.60408 231.618 9.18061 232.051 9.46887C232.339 9.68506 232.699 9.75713 233.059 9.75713C233.492 9.75713 233.852 9.613 234.068 9.3968C234.212 9.25267 234.357 9.10854 234.429 8.89234H236.591V8.74821ZM234.573 6.37006C234.573 5.79353 234.357 5.43321 234.068 5.14495C233.78 4.85668 233.42 4.71255 232.987 4.71255C232.483 4.71255 232.123 4.85668 231.906 5.14495C231.618 5.43321 231.474 5.8656 231.402 6.37006H234.573Z" fill="currentColor"/>
<path d="M241.924 5.07288C241.131 5.07288 240.554 5.36114 240.266 5.8656C240.122 6.15386 240.05 6.65832 240.05 7.23484V10.9822H237.96V3.19918H239.906V4.56842C240.194 4.06397 240.482 3.70364 240.698 3.48744C241.059 3.19918 241.563 2.98298 242.212 2.98298C242.284 2.98298 242.284 2.98298 242.284 2.98298C242.284 2.98298 242.356 2.98298 242.428 2.98298V5.07288C242.284 5.07288 242.212 5.07288 242.068 5.07288C242.068 5.07288 241.996 5.07288 241.924 5.07288Z" fill="currentColor"/>
</g>
<defs>
<clipPath id="clip0_4131_2472">
<rect width="242.5" height="13.8366" fill="currentColor" transform="translate(0 0.388632)"/>
</clipPath>
</defs>
</svg>
