<svg width="24" height="24" viewBox="0 0 24 24" fill="transparent" xmlns="http://www.w3.org/2000/svg">
<path d="M3 2.75H21C21.0994 2.75 21.1958 2.77965 21.2773 2.83398L21.3535 2.89648C21.4473 2.99031 21.5 3.11746 21.5 3.25V17.25C21.5 17.3826 21.4473 17.5098 21.3535 17.6035C21.2598 17.6973 21.1326 17.75 21 17.75H14.1895L14.04 17.9629L12 20.8779L9.95996 17.9629L9.81055 17.75H3C2.90061 17.75 2.80422 17.7204 2.72266 17.666L2.64648 17.6035C2.55277 17.5098 2.5 17.3826 2.5 17.25V3.25C2.5 3.1174 2.55272 2.99026 2.64648 2.89648C2.74026 2.80272 2.8674 2.75 3 2.75Z" stroke="currentColor"/> 
</svg>
