<svg width="337" height="20" viewBox="0 0 337 20" fill="none" xmlns="http://www.w3.org/2000/svg">
<g clip-path="url(#clip0_3611_3227)">
<path d="M9.6 11.8H4.2L3.2 14.8H0L5.2 0.100006H8.7L13.9 14.8H10.6L9.6 11.8ZM8.8 9.20001L6.9 3.40001L5.1 9.20001H8.8Z" fill="#E8E5E1"/>
<path d="M18.5 14.8H15.6V0.100006H20.1L22.8 11.7L25.5 0.100006H29.9V14.8H27V4.80001C27 4.50001 27 4.10001 27 3.60001C27 3.10001 27 2.70001 27 2.40001L24.2 14.7H21.2L18.5 2.50001C18.5 2.80001 18.5 3.20001 18.5 3.70001C18.5 4.20001 18.5 4.60001 18.5 4.90001V14.8Z" fill="#E8E5E1"/>
<path d="M38.9 14.8H32.6V0.100006H38.9C39.8 0.100006 40.6 0.200006 41.2 0.400006C42.2 0.700006 43.1 1.40001 43.7 2.30001C44.2 3.00001 44.6 3.80001 44.7 4.70001C44.9 5.50001 45 6.30001 45 7.10001C45 9.10001 44.6 10.7 43.8 12.1C42.8 13.9 41.1 14.8 38.9 14.8ZM41.2 3.80001C40.7 3.00001 39.8 2.60001 38.4 2.60001H35.6V12.2H38.4C39.8 12.2 40.9 11.5 41.4 10.1C41.7 9.30001 41.9 8.40001 41.9 7.30001C41.9 5.80001 41.6 4.60001 41.2 3.80001Z" fill="#E8E5E1"/>
<path d="M60.7 11.8H55.3L54.3 14.8H51.1L56.3 0.100006H59.8L65 14.8H61.7L60.7 11.8ZM59.9 9.20001L58 3.40001L56.1 9.20001H59.9Z" fill="#E8E5E1"/>
<path d="M72 6.50001C70.9 6.50001 70.1 6.90001 69.7 7.60001C69.5 8.00001 69.4 8.70001 69.4 9.50001V14.7H66.5V3.90001H69.2V5.80001C69.6 5.10001 70 4.60001 70.3 4.30001C70.8 3.90001 71.5 3.60001 72.4 3.60001C72.5 3.60001 72.5 3.60001 72.5 3.60001C72.5 3.60001 72.6 3.60001 72.7 3.60001V6.50001C72.5 6.50001 72.4 6.50001 72.2 6.50001C72.2 6.50001 72.1 6.50001 72 6.50001Z" fill="#E8E5E1"/>
<path d="M83.8 7.80001H80.9C80.8 7.40001 80.7 7.00001 80.5 6.70001C80.2 6.30001 79.7 6.00001 79 6.00001C78 6.00001 77.4 6.50001 77 7.40001C76.8 7.90001 76.7 8.60001 76.7 9.40001C76.7 10.2 76.8 10.8 77 11.3C77.3 12.2 78 12.7 78.9 12.7C79.6 12.7 80 12.5 80.3 12.2C80.6 11.8 80.7 11.4 80.8 10.8H83.7C83.6 11.7 83.3 12.5 82.8 13.3C81.9 14.5 80.6 15.2 78.8 15.2C77.1 15.2 75.8 14.7 74.9 13.6C74 12.5 73.7 11.2 73.7 9.60001C73.7 7.70001 74.2 6.30001 75.1 5.20001C76 4.10001 77.3 3.60001 78.9 3.60001C80.3 3.60001 81.4 3.90001 82.2 4.50001C83.1 5.20001 83.6 6.30001 83.8 7.80001Z" fill="#E8E5E1"/>
<path d="M95.4 8.40001V14.8H92.5V8.20001C92.5 7.60001 92.4 7.10001 92.2 6.80001C92 6.30001 91.5 6.00001 90.8 6.00001C90 6.00001 89.5 6.30001 89.1 6.80001C88.7 7.30001 88.5 8.00001 88.5 8.90001V14.8H85.7V0.100006H88.5V5.30001C88.9 4.70001 89.4 4.20001 89.9 4.00001C90.4 3.80001 91 3.60001 91.6 3.60001C92.3 3.60001 92.9 3.70001 93.4 3.90001C93.9 4.10001 94.4 4.50001 94.8 5.00001C95.1 5.40001 95.3 5.80001 95.3 6.30001C95.4 6.70001 95.4 7.40001 95.4 8.40001Z" fill="#E8E5E1"/>
<path d="M100.9 0V2.6H98V0H100.9ZM100.9 3.9V14.8H98V3.9H100.9Z" fill="#E8E5E1"/>
<path d="M108.5 12.8V14.9H107.2C105.9 14.9 104.9 14.7 104.4 14.2C104.1 13.9 103.9 13.4 103.9 12.7V6H102.4V4H103.9V1H106.7V4H108.5V6H106.7V11.7C106.7 12.1 106.8 12.4 106.9 12.5C107 12.6 107.4 12.7 107.9 12.7C108 12.7 108.1 12.7 108.2 12.7C108.3 12.8 108.4 12.8 108.5 12.8Z" fill="#E8E5E1"/>
<path d="M119.6 11.6C119.5 12.2 119.2 12.9 118.6 13.6C117.7 14.7 116.4 15.2 114.7 15.2C113.3 15.2 112.1 14.8 111 13.9C109.9 13 109.4 11.6 109.4 9.59999C109.4 7.69999 109.9 6.29999 110.8 5.29999C111.8 4.29999 113 3.79999 114.5 3.79999C115.4 3.79999 116.2 3.99999 116.9 4.29999C117.6 4.59999 118.2 5.19999 118.7 5.89999C119.1 6.49999 119.4 7.29999 119.5 8.09999C119.6 8.59999 119.6 9.29999 119.6 10.3H112.2C112.2 11.4 112.6 12.2 113.2 12.6C113.6 12.9 114.1 13 114.6 13C115.2 13 115.7 12.8 116 12.5C116.2 12.3 116.4 12.1 116.5 11.8H119.6V11.6ZM116.7 8.29999C116.7 7.49999 116.4 6.99999 116 6.59999C115.6 6.19999 115.1 5.99999 114.5 5.99999C113.8 5.99999 113.3 6.19999 113 6.59999C112.6 6.99999 112.4 7.59999 112.3 8.29999H116.7Z" fill="#E8E5E1"/>
<path d="M130.9 7.80001H128C127.9 7.40001 127.8 7.00001 127.6 6.70001C127.3 6.30001 126.8 6.00001 126.1 6.00001C125.1 6.00001 124.5 6.50001 124.1 7.40001C123.9 7.90001 123.8 8.60001 123.8 9.40001C123.8 10.2 123.9 10.8 124.1 11.3C124.4 12.2 125.1 12.7 126 12.7C126.7 12.7 127.1 12.5 127.4 12.2C127.7 11.8 127.8 11.4 127.9 10.8H130.8C130.7 11.7 130.4 12.5 129.9 13.3C129 14.5 127.7 15.2 125.9 15.2C124.2 15.2 122.9 14.7 122 13.6C121.1 12.5 120.8 11.2 120.8 9.60001C120.8 7.70001 121.3 6.30001 122.2 5.20001C123.1 4.10001 124.4 3.60001 126 3.60001C127.4 3.60001 128.5 3.90001 129.3 4.50001C130.2 5.20001 130.7 6.30001 130.9 7.80001Z" fill="#E8E5E1"/>
<path d="M137.7 12.8V14.9H136.4C135.1 14.9 134.1 14.7 133.6 14.2C133.3 13.9 133.1 13.4 133.1 12.7V6H131.6V4H133.1V1H135.9V4H137.7V6H136V11.7C136 12.1 136.1 12.4 136.2 12.5C136.3 12.6 136.7 12.7 137.2 12.7C137.3 12.7 137.4 12.7 137.5 12.7C137.5 12.8 137.6 12.8 137.7 12.8Z" fill="#E8E5E1"/>
<path d="M146.4 13.2C146.4 13.2 146.3 13.3 146.2 13.5C146.1 13.7 146 13.8 145.8 13.9C145.4 14.3 144.9 14.6 144.5 14.7C144.1 14.8 143.6 14.9 143 14.9C141.4 14.9 140.3 14.3 139.8 13.2C139.5 12.6 139.3 11.6 139.3 10.4V3.89999H142.2V10.4C142.2 11 142.3 11.5 142.4 11.8C142.7 12.4 143.2 12.6 143.9 12.6C144.9 12.6 145.5 12.2 145.9 11.4C146.1 11 146.2 10.4 146.2 9.69999V3.89999H149.1V14.8H146.3V13.2H146.4Z" fill="#E8E5E1"/>
<path d="M157.3 6.50001C156.2 6.50001 155.4 6.90001 155 7.60001C154.8 8.00001 154.7 8.70001 154.7 9.50001V14.7H151.8V3.90001H154.5V5.80001C154.9 5.10001 155.3 4.60001 155.6 4.30001C156.1 3.90001 156.8 3.60001 157.7 3.60001C157.8 3.60001 157.8 3.60001 157.8 3.60001C157.8 3.60001 157.9 3.60001 158 3.60001V6.50001C157.8 6.50001 157.7 6.50001 157.5 6.50001C157.5 6.50001 157.4 6.50001 157.3 6.50001Z" fill="#E8E5E1"/>
<path d="M169 11.6C168.9 12.2 168.6 12.9 168 13.6C167.1 14.7 165.8 15.2 164.1 15.2C162.7 15.2 161.5 14.8 160.4 13.9C159.3 13 158.8 11.6 158.8 9.59999C158.8 7.69999 159.3 6.29999 160.2 5.29999C161.2 4.29999 162.4 3.79999 163.9 3.79999C164.8 3.79999 165.6 3.99999 166.3 4.29999C167 4.59999 167.6 5.19999 168.1 5.89999C168.5 6.49999 168.8 7.29999 168.9 8.09999C169 8.59999 169 9.29999 169 10.3H161.6C161.6 11.4 162 12.2 162.6 12.6C163 12.9 163.5 13 164 13C164.6 13 165.1 12.8 165.4 12.5C165.6 12.3 165.8 12.1 165.9 11.8H169V11.6ZM166.1 8.29999C166.1 7.49999 165.8 6.99999 165.4 6.59999C165 6.19999 164.5 5.99999 163.9 5.99999C163.2 5.99999 162.7 6.19999 162.4 6.59999C162 6.99999 161.8 7.59999 161.7 8.29999H166.1Z" fill="#E8E5E1"/>
<path d="M176.5 0.100006H179.5V14.8H176.5V0.100006Z" fill="#E8E5E1"/>
<path d="M187.2 6.00001C186.2 6.00001 185.6 6.40001 185.2 7.20001C185 7.60001 184.9 8.20001 184.9 8.90001V14.8H182.1V3.90001H184.8V5.50001C185.2 4.90001 185.5 4.50001 185.8 4.30001C186.4 3.90001 187.1 3.60001 188 3.60001C189.1 3.60001 190 3.90001 190.8 4.50001C191.5 5.10001 191.9 6.10001 191.9 7.40001V14.7H189V8.20001C189 7.60001 188.9 7.20001 188.8 6.90001C188.5 6.30001 187.9 6.00001 187.2 6.00001Z" fill="#E8E5E1"/>
<path d="M199.4 12.8V14.9H198.1C196.8 14.9 195.8 14.7 195.3 14.2C195 13.9 194.8 13.4 194.8 12.7V6H193.3V4H194.8V1H197.6V4H199.4V6H197.6V11.7C197.6 12.1 197.7 12.4 197.8 12.5C197.9 12.6 198.3 12.7 198.8 12.7C198.9 12.7 199 12.7 199.1 12.7C199.2 12.8 199.3 12.8 199.4 12.8Z" fill="#E8E5E1"/>
<path d="M210.4 11.6C210.3 12.2 210 12.9 209.4 13.6C208.5 14.7 207.2 15.2 205.5 15.2C204.1 15.2 202.9 14.8 201.8 13.9C200.7 13 200.2 11.6 200.2 9.59999C200.2 7.69999 200.7 6.29999 201.6 5.29999C202.6 4.29999 203.8 3.79999 205.3 3.79999C206.2 3.79999 207 3.99999 207.7 4.29999C208.4 4.59999 209 5.19999 209.5 5.89999C209.9 6.49999 210.2 7.29999 210.3 8.09999C210.4 8.59999 210.4 9.29999 210.4 10.3H203C203 11.4 203.4 12.2 204 12.6C204.4 12.9 204.9 13 205.4 13C206 13 206.5 12.8 206.8 12.5C207 12.3 207.2 12.1 207.3 11.8H210.4V11.6ZM207.6 8.29999C207.6 7.49999 207.3 6.99999 206.9 6.59999C206.5 6.19999 206 5.99999 205.4 5.99999C204.7 5.99999 204.2 6.19999 203.9 6.59999C203.5 6.99999 203.3 7.59999 203.2 8.29999H207.6Z" fill="#E8E5E1"/>
<path d="M217.8 6.50001C216.7 6.50001 215.9 6.90001 215.5 7.60001C215.3 8.00001 215.2 8.70001 215.2 9.50001V14.7H212.3V3.90001H215V5.80001C215.4 5.10001 215.8 4.60001 216.1 4.30001C216.6 3.90001 217.3 3.60001 218.2 3.60001C218.3 3.60001 218.3 3.60001 218.3 3.60001C218.3 3.60001 218.4 3.60001 218.5 3.60001V6.50001C218.3 6.50001 218.2 6.50001 218 6.50001C217.8 6.50001 217.9 6.50001 217.8 6.50001Z" fill="#E8E5E1"/>
<path d="M223.1 0V2.6H220.2V0H223.1ZM223.1 3.9V14.8H220.2V3.9H223.1Z" fill="#E8E5E1"/>
<path d="M234.8 5.30001C235.7 6.40001 236.2 7.80001 236.2 9.40001C236.2 11 235.7 12.4 234.8 13.5C233.9 14.6 232.5 15.2 230.6 15.2C228.7 15.2 227.3 14.6 226.4 13.5C225.5 12.4 225 11 225 9.40001C225 7.80001 225.5 6.50001 226.4 5.30001C227.3 4.10001 228.7 3.60001 230.6 3.60001C232.5 3.60001 233.9 4.10001 234.8 5.30001ZM230.6 6.00001C229.8 6.00001 229.1 6.30001 228.7 6.90001C228.3 7.50001 228 8.30001 228 9.40001C228 10.5 228.2 11.3 228.7 11.9C229.1 12.5 229.8 12.8 230.6 12.8C231.4 12.8 232.1 12.5 232.5 11.9C232.9 11.3 233.2 10.5 233.2 9.40001C233.2 8.30001 233 7.50001 232.5 6.90001C232 6.30001 231.5 6.00001 230.6 6.00001Z" fill="#E8E5E1"/>
<path d="M243.6 6.50001C242.5 6.50001 241.7 6.90001 241.3 7.60001C241.1 8.00001 241 8.70001 241 9.50001V14.7H238.1V3.90001H240.8V5.80001C241.2 5.10001 241.6 4.60001 241.9 4.30001C242.4 3.90001 243.1 3.60001 244 3.60001C244.1 3.60001 244.1 3.60001 244.1 3.60001C244.1 3.60001 244.2 3.60001 244.3 3.60001V6.50001C244.1 6.50001 244 6.50001 243.8 6.50001C243.8 6.50001 243.7 6.50001 243.6 6.50001Z" fill="#E8E5E1"/>
<path d="M258.1 14.8H251.8V0.100006H258.1C259 0.100006 259.8 0.200006 260.4 0.400006C261.4 0.700006 262.3 1.40001 262.9 2.30001C263.4 3.00001 263.8 3.80001 263.9 4.70001C264.1 5.60001 264.2 6.40001 264.2 7.10001C264.2 9.10001 263.8 10.7 263 12.1C261.9 13.9 260.3 14.8 258.1 14.8ZM260.4 3.80001C259.9 3.00001 259 2.60001 257.6 2.60001H254.8V12.2H257.6C259 12.2 260.1 11.5 260.6 10.1C260.9 9.30001 261.1 8.40001 261.1 7.30001C261.1 5.80001 260.8 4.60001 260.4 3.80001Z" fill="#E8E5E1"/>
<path d="M275.5 11.6C275.4 12.2 275.1 12.9 274.5 13.6C273.6 14.7 272.3 15.2 270.6 15.2C269.2 15.2 268 14.8 266.9 13.9C265.8 13 265.3 11.6 265.3 9.59999C265.3 7.69999 265.8 6.29999 266.7 5.29999C267.7 4.29999 268.9 3.79999 270.4 3.79999C271.3 3.79999 272.1 3.99999 272.8 4.29999C273.5 4.59999 274.1 5.19999 274.6 5.89999C275 6.49999 275.3 7.29999 275.4 8.09999C275.5 8.59999 275.5 9.29999 275.5 10.3H268.1C268.1 11.4 268.5 12.2 269.1 12.6C269.5 12.9 270 13 270.5 13C271.1 13 271.6 12.8 271.9 12.5C272.1 12.3 272.3 12.1 272.4 11.8H275.5V11.6ZM272.7 8.29999C272.7 7.49999 272.4 6.99999 272 6.59999C271.6 6.19999 271.1 5.99999 270.5 5.99999C269.8 5.99999 269.3 6.19999 269 6.59999C268.6 6.99999 268.4 7.59999 268.3 8.29999H272.7Z" fill="#E8E5E1"/>
<path d="M284.9 4.4C285.7 4.9 286.2 5.9 286.4 7.2H283.6C283.6 6.8 283.5 6.5 283.3 6.3C283 5.9 282.5 5.7 281.7 5.7C281.1 5.7 280.6 5.8 280.4 6C280.1 6.2 280 6.4 280 6.7C280 7 280.1 7.3 280.4 7.4C280.7 7.6 281.7 7.8 283.4 8.2C284.5 8.5 285.4 8.9 285.9 9.4C286.5 9.9 286.7 10.6 286.7 11.4C286.7 12.5 286.3 13.4 285.5 14C284.7 14.6 283.5 15 281.8 15C280.1 15 278.8 14.6 278 13.9C277.2 13.2 276.8 12.3 276.8 11.1H279.7C279.8 11.6 279.9 12 280.1 12.2C280.5 12.6 281.1 12.8 282.1 12.8C282.7 12.8 283.1 12.7 283.4 12.6C283.7 12.5 283.9 12.2 283.9 11.9C283.9 11.6 283.8 11.3 283.5 11.2C283.2 11.1 282.2 10.7 280.5 10.3C279.3 10 278.4 9.6 277.9 9.2C277.4 8.7 277.1 8.1 277.1 7.2C277.1 6.2 277.5 5.3 278.3 4.6C279.1 3.9 280.2 3.5 281.6 3.5C282.9 3.6 284 3.9 284.9 4.4Z" fill="#E8E5E1"/>
<path d="M291.6 0V2.6H288.7V0H291.6ZM291.6 3.9V14.8H288.7V3.9H291.6Z" fill="#E8E5E1"/>
<path d="M297.3 16.7C297.6 17 298.1 17.1 298.8 17.1C299.8 17.1 300.5 16.8 300.9 16.1C301.1 15.7 301.2 14.9 301.2 13.9V13.2C300.9 13.7 300.6 14 300.3 14.2C299.7 14.6 299 14.8 298.1 14.8C296.7 14.8 295.6 14.3 294.8 13.3C294 12.3 293.6 11 293.6 9.30001C293.6 7.70001 294 6.30001 294.8 5.20001C295.6 4.10001 296.7 3.60001 298.2 3.60001C298.7 3.60001 299.2 3.70001 299.6 3.80001C300.3 4.10001 300.8 4.60001 301.3 5.40001V3.90001H304.1V14.2C304.1 15.6 303.9 16.7 303.4 17.4C302.6 18.6 301 19.2 298.7 19.2C297.3 19.2 296.2 18.9 295.3 18.4C294.4 17.9 293.9 17 293.8 16H296.9C297 16.3 297.1 16.5 297.3 16.7ZM296.8 11.1C297.2 12 297.9 12.5 298.9 12.5C299.6 12.5 300.1 12.3 300.6 11.7C301.1 11.2 301.3 10.4 301.3 9.30001C301.3 8.30001 301.1 7.50001 300.6 6.90001C300.2 6.40001 299.6 6.10001 298.9 6.10001C297.9 6.10001 297.2 6.60001 296.8 7.50001C296.6 8.00001 296.5 8.60001 296.5 9.30001C296.5 10 296.6 10.6 296.8 11.1Z" fill="#E8E5E1"/>
<path d="M311.7 6.00001C310.7 6.00001 310.1 6.40001 309.7 7.20001C309.5 7.60001 309.4 8.20001 309.4 8.90001V14.8H306.6V3.90001H309.3V5.50001C309.7 4.90001 310 4.50001 310.3 4.30001C310.9 3.90001 311.6 3.60001 312.5 3.60001C313.6 3.60001 314.5 3.90001 315.3 4.50001C316 5.10001 316.4 6.10001 316.4 7.40001V14.7H313.5V8.20001C313.5 7.60001 313.4 7.20001 313.3 6.90001C313 6.30001 312.5 6.00001 311.7 6.00001Z" fill="#E8E5E1"/>
<path d="M328.3 11.6C328.2 12.2 327.9 12.9 327.3 13.6C326.4 14.7 325.1 15.2 323.4 15.2C322 15.2 320.8 14.8 319.7 13.9C318.6 13 318.1 11.6 318.1 9.59999C318.1 7.69999 318.6 6.29999 319.5 5.29999C320.5 4.29999 321.7 3.79999 323.2 3.79999C324.1 3.79999 324.9 3.99999 325.6 4.29999C326.3 4.59999 326.9 5.19999 327.4 5.89999C327.8 6.49999 328.1 7.29999 328.2 8.09999C328.3 8.59999 328.3 9.29999 328.3 10.3H321C321 11.4 321.4 12.2 322 12.6C322.4 12.9 322.9 13 323.4 13C324 13 324.5 12.8 324.8 12.5C325 12.3 325.2 12.1 325.3 11.8H328.3V11.6ZM325.5 8.29999C325.5 7.49999 325.2 6.99999 324.8 6.59999C324.4 6.19999 323.9 5.99999 323.3 5.99999C322.6 5.99999 322.1 6.19999 321.8 6.59999C321.4 6.99999 321.2 7.59999 321.1 8.29999H325.5Z" fill="#E8E5E1"/>
<path d="M335.7 6.50001C334.6 6.50001 333.8 6.90001 333.4 7.60001C333.2 8.00001 333.1 8.70001 333.1 9.50001V14.7H330.2V3.90001H332.9V5.80001C333.3 5.10001 333.7 4.60001 334 4.30001C334.5 3.90001 335.2 3.60001 336.1 3.60001C336.2 3.60001 336.2 3.60001 336.2 3.60001C336.2 3.60001 336.3 3.60001 336.4 3.60001V6.50001C336.2 6.50001 336.1 6.50001 335.9 6.50001C335.9 6.50001 335.8 6.50001 335.7 6.50001Z" fill="#E8E5E1"/>
</g>
<defs>
<clipPath id="clip0_3611_3227">
<rect width="336.5" height="19.2" fill="white"/>
</clipPath>
</defs>
</svg>
