<svg width="511" height="78" viewBox="0 0 511 78" fill="none" xmlns="http://www.w3.org/2000/svg">
<g clip-path="url(#clip0_3611_4031)">
<path d="M48.2 58.3H21.1L16 73.4H0L26.2 0H43.5L69.5 73.4H52.9L48.2 58.3ZM43.9 45.7L34.7 16.8L25.2 45.7H43.9Z" fill="#E8E5E1"/>
<path d="M90.8 73.4H76.5V0H98.8L112.2 57.8L125.4 0H147.5V73.4H133.2V23.8C133.2 22.4 133.2 20.4 133.2 17.8C133.2 15.2 133.2 13.2 133.2 11.8L119.3 73.4H104.4L90.7 11.8C90.7 13.2 90.7 15.2 90.7 17.8C90.7 20.4 90.7 22.4 90.7 23.8V73.4H90.8Z" fill="#E8E5E1"/>
<path d="M191.2 73.4H159.6V0H191.2C195.8 0.1 199.5 0.6 202.6 1.6C207.7 3.3 211.9 6.4 215.1 10.9C217.7 14.6 219.4 18.5 220.3 22.8C221.2 27.1 221.7 31.1 221.7 35C221.7 44.8 219.7 53 215.8 59.8C210.5 68.9 202.3 73.4 191.2 73.4ZM202.6 18.7C200.2 14.7 195.6 12.7 188.6 12.7H174.4V60.6H188.6C195.8 60.6 200.9 57 203.7 49.9C205.3 46 206 41.3 206 35.9C206.1 28.5 205 22.8 202.6 18.7Z" fill="#E8E5E1"/>
<path d="M234.9 70.4H229.5L228.5 73.4H225.3L230.5 58.7H234L239.2 73.4H235.9L234.9 70.4ZM234.1 67.9L232.3 62.1L230.4 67.9H234.1Z" fill="#E8E5E1"/>
<path d="M246.2 65.2C245.1 65.2 244.3 65.6 243.9 66.3C243.7 66.7 243.6 67.4 243.6 68.2V73.4H240.7V62.6H243.4V64.5C243.8 63.8 244.2 63.3 244.5 63C245 62.6 245.7 62.3 246.6 62.3C246.7 62.3 246.7 62.3 246.7 62.3C246.7 62.3 246.8 62.3 246.9 62.3V65.2C246.7 65.2 246.6 65.2 246.4 65.2C246.4 65.2 246.3 65.2 246.2 65.2Z" fill="#E8E5E1"/>
<path d="M257.9 66.5H255C254.9 66.1 254.8 65.7 254.6 65.4C254.3 65 253.8 64.7 253.1 64.7C252.1 64.7 251.5 65.2 251.1 66.1C250.9 66.6 250.8 67.3 250.8 68.1C250.8 68.9 250.9 69.5 251.1 70C251.4 70.9 252.1 71.4 253 71.4C253.7 71.4 254.1 71.2 254.4 70.9C254.7 70.5 254.8 70.1 254.9 69.5H257.8C257.7 70.4 257.4 71.2 256.9 72C256 73.2 254.7 73.9 252.9 73.9C251.2 73.9 249.9 73.4 249 72.3C248.1 71.2 247.8 69.9 247.8 68.3C247.8 66.4 248.3 65 249.2 63.9C250.1 62.9 251.4 62.3 253 62.3C254.4 62.3 255.5 62.6 256.3 63.2C257.3 63.9 257.8 64.9 257.9 66.5Z" fill="#E8E5E1"/>
<path d="M269.6 67.1V73.5H266.7V66.9C266.7 66.3 266.6 65.8 266.4 65.5C266.1 65 265.6 64.7 264.9 64.7C264.1 64.7 263.6 65 263.2 65.5C262.8 66 262.6 66.7 262.6 67.6V73.5H259.8V58.8H262.6V64C263 63.4 263.5 62.9 264 62.7C264.5 62.5 265.1 62.3 265.7 62.3C266.4 62.3 267 62.4 267.5 62.6C268 62.8 268.5 63.2 268.8 63.7C269.1 64.1 269.3 64.5 269.3 65C269.3 65.5 269.6 66.1 269.6 67.1Z" fill="#E8E5E1"/>
<path d="M275 58.7V61.3H272.1V58.7H275ZM275 62.6V73.5H272.1V62.6H275Z" fill="#E8E5E1"/>
<path d="M282.6 71.4V73.5H281.3C280 73.5 279 73.3 278.5 72.8C278.2 72.5 278 72 278 71.3V64.6H276.5V62.6H278V59.6H280.8V62.6H282.6V64.6H280.8V70.3C280.8 70.7 280.9 71 281 71.1C281.1 71.2 281.5 71.3 282 71.3C282.1 71.3 282.2 71.3 282.3 71.3C282.4 71.4 282.5 71.4 282.6 71.4Z" fill="#E8E5E1"/>
<path d="M293.6 70.3C293.5 70.9 293.2 71.6 292.6 72.3C291.7 73.4 290.4 73.9 288.7 73.9C287.3 73.9 286.1 73.5 285 72.6C283.9 71.7 283.4 70.3 283.4 68.3C283.4 66.4 283.9 65 284.8 64C285.8 63 287 62.5 288.5 62.5C289.4 62.5 290.2 62.7 290.9 63C291.6 63.3 292.2 63.9 292.7 64.6C293.1 65.2 293.4 66 293.5 66.8C293.6 67.3 293.6 68 293.6 69H286.2C286.2 70.1 286.6 70.9 287.2 71.3C287.6 71.6 288.1 71.7 288.6 71.7C289.2 71.7 289.7 71.5 290 71.2C290.2 71 290.4 70.8 290.5 70.5H293.6V70.3ZM290.8 66.9C290.8 66.1 290.5 65.6 290.1 65.2C289.7 64.8 289.2 64.6 288.6 64.6C287.9 64.6 287.4 64.8 287.1 65.2C286.7 65.6 286.5 66.2 286.4 66.9H290.8Z" fill="#E8E5E1"/>
<path d="M305 66.5H302C301.9 66.1 301.8 65.7 301.6 65.4C301.3 65 300.8 64.7 300.1 64.7C299.1 64.7 298.5 65.2 298.1 66.1C297.9 66.6 297.8 67.3 297.8 68.1C297.8 68.9 297.9 69.5 298.1 70C298.4 70.9 299.1 71.4 300 71.4C300.7 71.4 301.1 71.2 301.4 70.9C301.7 70.6 301.8 70.1 301.9 69.5H304.8C304.7 70.4 304.4 71.2 303.9 72C303 73.2 301.7 73.9 299.9 73.9C298.2 73.9 296.9 73.4 296 72.3C295.2 71.3 294.8 69.9 294.8 68.3C294.8 66.4 295.3 65 296.2 63.9C297.1 62.9 298.4 62.3 300 62.3C301.4 62.3 302.5 62.6 303.3 63.2C304.1 63.8 304.8 64.9 305 66.5Z" fill="#E8E5E1"/>
<path d="M311.8 71.4V73.5H310.5C309.2 73.5 308.2 73.3 307.7 72.8C307.4 72.5 307.2 72 307.2 71.3V64.6H305.7V62.6H307.2V59.6H310V62.6H311.8V64.6H310V70.3C310 70.7 310.1 71 310.2 71.1C310.3 71.2 310.7 71.3 311.2 71.3C311.3 71.3 311.4 71.3 311.5 71.3C311.6 71.4 311.7 71.4 311.8 71.4Z" fill="#E8E5E1"/>
<path d="M320.4 71.9C320.4 71.9 320.3 72 320.2 72.2C320.1 72.4 320 72.5 319.8 72.6C319.4 73 318.9 73.3 318.5 73.4C318.1 73.5 317.6 73.6 317 73.6C315.4 73.6 314.3 73 313.8 71.9C313.5 71.3 313.3 70.3 313.3 69.1V62.6H316.2V69.1C316.2 69.7 316.3 70.2 316.4 70.5C316.7 71.1 317.2 71.3 317.9 71.3C318.9 71.3 319.5 70.9 319.9 70.1C320.1 69.7 320.2 69.1 320.2 68.4V62.5H323.1V73.4H320.3V71.9H320.4Z" fill="#E8E5E1"/>
<path d="M331.3 65.2C330.2 65.2 329.4 65.6 329 66.3C328.8 66.7 328.7 67.4 328.7 68.2V73.4H325.8V62.6H328.5V64.5C328.9 63.8 329.3 63.3 329.6 63C330.1 62.6 330.8 62.3 331.7 62.3C331.8 62.3 331.8 62.3 331.8 62.3C331.8 62.3 331.9 62.3 332 62.3V65.2C331.8 65.2 331.7 65.2 331.5 65.2H331.3Z" fill="#E8E5E1"/>
<path d="M342.9 70.3C342.8 70.9 342.5 71.6 341.9 72.3C341 73.4 339.7 73.9 338 73.9C336.6 73.9 335.4 73.5 334.3 72.6C333.2 71.7 332.7 70.3 332.7 68.3C332.7 66.4 333.2 65 334.1 64C335.1 63 336.3 62.5 337.8 62.5C338.7 62.5 339.5 62.7 340.2 63C340.9 63.3 341.5 63.9 342 64.6C342.4 65.2 342.7 66 342.8 66.8C342.9 67.3 342.9 68 342.9 69H335.5C335.5 70.1 335.9 70.9 336.5 71.3C336.9 71.6 337.4 71.7 337.9 71.7C338.5 71.7 339 71.5 339.3 71.2C339.5 71 339.7 70.8 339.8 70.5H342.9V70.3ZM340.1 66.9C340.1 66.1 339.8 65.6 339.4 65.2C339 64.8 338.5 64.6 337.9 64.6C337.2 64.6 336.7 64.8 336.4 65.2C336 65.6 335.8 66.2 335.7 66.9H340.1Z" fill="#E8E5E1"/>
<path d="M350.4 58.8H353.4V73.5H350.4V58.8Z" fill="#E8E5E1"/>
<path d="M361.1 64.7C360.1 64.7 359.5 65.1 359.1 65.9C358.9 66.3 358.8 66.9 358.8 67.6V73.5H356V62.6H358.7V64.2C359.1 63.6 359.4 63.2 359.7 63C360.3 62.6 361 62.3 361.9 62.3C363 62.3 363.9 62.6 364.7 63.2C365.4 63.8 365.8 64.8 365.8 66.1V73.4H362.9V66.8C362.9 66.2 362.8 65.8 362.7 65.5C362.4 65 361.8 64.7 361.1 64.7Z" fill="#E8E5E1"/>
<path d="M373.3 71.4V73.5H372C370.7 73.5 369.7 73.3 369.2 72.8C368.9 72.5 368.7 72 368.7 71.3V64.6H367.2V62.6H368.7V59.6H371.5V62.6H373.3V64.6H371.5V70.3C371.5 70.7 371.6 71 371.7 71.1C371.8 71.2 372.2 71.3 372.7 71.3C372.8 71.3 372.9 71.3 373 71.3C373.1 71.4 373.2 71.4 373.3 71.4Z" fill="#E8E5E1"/>
<path d="M384.3 70.3C384.2 70.9 383.9 71.6 383.3 72.3C382.4 73.4 381.1 73.9 379.4 73.9C378 73.9 376.8 73.5 375.7 72.6C374.6 71.7 374.1 70.3 374.1 68.3C374.1 66.4 374.6 65 375.5 64C376.4 63 377.7 62.5 379.2 62.5C380.1 62.5 380.9 62.7 381.6 63C382.3 63.3 382.9 63.9 383.4 64.6C383.8 65.2 384.1 66 384.2 66.8C384.3 67.3 384.3 68 384.3 69H377C377 70.1 377.4 70.9 378 71.3C378.4 71.6 378.9 71.7 379.4 71.7C380 71.7 380.5 71.5 380.8 71.2C381 71 381.2 70.8 381.3 70.5H384.3V70.3ZM381.5 66.9C381.5 66.1 381.2 65.6 380.8 65.2C380.4 64.8 379.9 64.6 379.3 64.6C378.6 64.6 378.1 64.8 377.8 65.2C377.4 65.6 377.2 66.2 377.1 66.9H381.5Z" fill="#E8E5E1"/>
<path d="M391.7 65.2C390.6 65.2 389.8 65.6 389.4 66.3C389.2 66.7 389.1 67.4 389.1 68.2V73.4H386.2V62.6H388.9V64.5C389.3 63.8 389.7 63.3 390 63C390.5 62.6 391.2 62.3 392.1 62.3C392.2 62.3 392.2 62.3 392.2 62.3C392.2 62.3 392.3 62.3 392.4 62.3V65.2C392.2 65.2 392.1 65.2 391.9 65.2C391.7 65.2 391.7 65.2 391.7 65.2Z" fill="#E8E5E1"/>
<path d="M396.9 58.7V61.3H394V58.7H396.9ZM396.9 62.6V73.5H394V62.6H396.9Z" fill="#E8E5E1"/>
<path d="M408.6 64C409.5 65.1 410 66.5 410 68.1C410 69.7 409.5 71.1 408.6 72.2C407.7 73.3 406.3 73.9 404.4 73.9C402.5 73.9 401.1 73.3 400.2 72.2C399.3 71.1 398.8 69.7 398.8 68.1C398.8 66.5 399.3 65.2 400.2 64C401.1 62.9 402.5 62.3 404.4 62.3C406.3 62.3 407.7 62.8 408.6 64ZM404.4 64.6C403.6 64.6 402.9 64.9 402.5 65.5C402.1 66.1 401.8 66.9 401.8 68C401.8 69.1 402 69.9 402.5 70.5C402.9 71.1 403.6 71.4 404.4 71.4C405.2 71.4 405.9 71.1 406.3 70.5C406.7 69.9 407 69.1 407 68C407 66.9 406.8 66.1 406.3 65.5C405.9 64.9 405.3 64.6 404.4 64.6Z" fill="#E8E5E1"/>
<path d="M417.4 65.2C416.3 65.2 415.5 65.6 415.1 66.3C414.9 66.7 414.8 67.4 414.8 68.2V73.4H411.9V62.6H414.6V64.5C415 63.8 415.4 63.3 415.7 63C416.2 62.6 416.9 62.3 417.8 62.3C417.9 62.3 417.9 62.3 417.9 62.3C417.9 62.3 418 62.3 418.1 62.3V65.2C417.9 65.2 417.8 65.2 417.6 65.2C417.4 65.2 417.5 65.2 417.4 65.2Z" fill="#E8E5E1"/>
<path d="M431.8 73.4H425.5V58.8H431.8C432.7 58.8 433.5 58.9 434.1 59.1C435.1 59.4 436 60.1 436.6 61C437.1 61.7 437.5 62.5 437.6 63.4C437.7 64.3 437.9 65.1 437.9 65.8C437.9 67.8 437.5 69.4 436.7 70.8C435.7 72.5 434 73.4 431.8 73.4ZM434.1 62.5C433.6 61.7 432.7 61.3 431.3 61.3H428.5V70.9H431.3C432.7 70.9 433.8 70.2 434.3 68.8C434.6 68 434.8 67.1 434.8 66C434.8 64.5 434.6 63.3 434.1 62.5Z" fill="#E8E5E1"/>
<path d="M449.2 70.3C449.1 70.9 448.8 71.6 448.2 72.3C447.3 73.4 446 73.9 444.3 73.9C442.9 73.9 441.7 73.5 440.6 72.6C439.5 71.7 439 70.3 439 68.3C439 66.4 439.5 65 440.4 64C441.3 63 442.6 62.5 444.1 62.5C445 62.5 445.8 62.7 446.5 63C447.2 63.3 447.8 63.9 448.3 64.6C448.7 65.2 449 66 449.1 66.8C449.2 67.3 449.2 68 449.2 69H441.8C441.8 70.1 442.2 70.9 442.8 71.3C443.2 71.6 443.7 71.7 444.2 71.7C444.8 71.7 445.3 71.5 445.6 71.2C445.8 71 446 70.8 446.1 70.5H449.2V70.3ZM446.4 66.9C446.4 66.1 446.1 65.6 445.7 65.2C445.3 64.8 444.8 64.6 444.2 64.6C443.5 64.6 443 64.8 442.7 65.2C442.3 65.6 442.1 66.2 442 66.9H446.4Z" fill="#E8E5E1"/>
<path d="M458.6 63.1C459.5 63.6 459.9 64.6 460.1 65.9H457.3C457.3 65.5 457.2 65.2 457 65C456.7 64.6 456.2 64.4 455.4 64.4C454.8 64.4 454.3 64.5 454.1 64.7C453.8 64.9 453.7 65.1 453.7 65.4C453.7 65.7 453.8 66 454.1 66.1C454.4 66.3 455.4 66.5 457.1 66.9C458.2 67.2 459.1 67.6 459.6 68.1C460.2 68.6 460.4 69.3 460.4 70.1C460.4 71.2 460 72.1 459.2 72.7C458.4 73.4 457.2 73.7 455.5 73.7C453.8 73.7 452.5 73.3 451.7 72.6C450.9 71.9 450.5 71 450.5 69.8H453.4C453.5 70.3 453.6 70.7 453.8 70.9C454.2 71.3 454.8 71.5 455.8 71.5C456.4 71.5 456.8 71.4 457.1 71.3C457.4 71.1 457.6 70.9 457.6 70.6C457.6 70.3 457.5 70 457.2 69.9C456.9 69.8 455.9 69.4 454.2 69C453 68.7 452.1 68.3 451.6 67.9C451.1 67.4 450.8 66.8 450.8 65.9C450.8 64.9 451.2 64 452 63.3C452.8 62.6 453.9 62.2 455.3 62.2C456.6 62.3 457.7 62.5 458.6 63.1Z" fill="#E8E5E1"/>
<path d="M465.3 58.7V61.3H462.4V58.7H465.3ZM465.3 62.6V73.5H462.4V62.6H465.3Z" fill="#E8E5E1"/>
<path d="M471 75.3C471.3 75.6 471.8 75.7 472.5 75.7C473.5 75.7 474.2 75.4 474.6 74.7C474.8 74.3 474.9 73.5 474.9 72.5V71.8C474.6 72.3 474.3 72.6 474 72.8C473.4 73.2 472.7 73.4 471.8 73.4C470.4 73.4 469.3 72.9 468.5 71.9C467.7 70.9 467.3 69.6 467.3 67.9C467.3 66.3 467.7 64.9 468.5 63.8C469.3 62.7 470.4 62.2 471.9 62.2C472.4 62.2 472.9 62.3 473.3 62.4C474 62.7 474.5 63.2 475 64V62.4H477.8V72.7C477.8 74.1 477.6 75.2 477.1 75.9C476.3 77.1 474.7 77.7 472.4 77.7C471 77.7 469.9 77.4 469 76.9C468.1 76.4 467.6 75.5 467.5 74.5H470.6C470.7 75 470.8 75.2 471 75.3ZM470.5 69.7C470.9 70.6 471.6 71.1 472.6 71.1C473.3 71.1 473.8 70.9 474.3 70.3C474.8 69.7 475 69 475 67.9C475 66.9 474.8 66.1 474.3 65.5C473.8 64.9 473.3 64.7 472.5 64.7C471.5 64.7 470.8 65.2 470.4 66.1C470.2 66.6 470.1 67.2 470.1 67.9C470.2 68.7 470.3 69.2 470.5 69.7Z" fill="#E8E5E1"/>
<path d="M485.4 64.7C484.4 64.7 483.8 65.1 483.4 65.9C483.2 66.3 483.1 66.9 483.1 67.6V73.5H480.3V62.6H483V64.2C483.4 63.6 483.7 63.2 484 63C484.6 62.6 485.3 62.3 486.2 62.3C487.3 62.3 488.2 62.6 489 63.2C489.8 63.8 490.1 64.8 490.1 66.1V73.4H487.2V66.8C487.2 66.2 487.1 65.8 487 65.5C486.7 65 486.1 64.7 485.4 64.7Z" fill="#E8E5E1"/>
<path d="M501.9 70.3C501.8 70.9 501.5 71.6 500.9 72.3C500 73.4 498.7 73.9 497 73.9C495.6 73.9 494.4 73.5 493.3 72.6C492.2 71.7 491.7 70.3 491.7 68.3C491.7 66.4 492.2 65 493.1 64C494 63 495.3 62.5 496.8 62.5C497.7 62.5 498.5 62.7 499.2 63C499.9 63.3 500.5 63.9 501 64.6C501.4 65.2 501.7 66 501.8 66.8C501.9 67.3 501.9 68 501.9 69H494.5C494.5 70.1 494.9 70.9 495.5 71.3C495.9 71.6 496.4 71.7 496.9 71.7C497.5 71.7 498 71.5 498.3 71.2C498.5 71 498.7 70.8 498.8 70.5H501.9V70.3ZM499.1 66.9C499.1 66.1 498.8 65.6 498.4 65.2C498 64.8 497.5 64.6 496.9 64.6C496.2 64.6 495.7 64.8 495.4 65.2C495 65.6 494.8 66.2 494.7 66.9H499.1Z" fill="#E8E5E1"/>
<path d="M509.3 65.2C508.2 65.2 507.4 65.6 507 66.3C506.8 66.7 506.7 67.4 506.7 68.2V73.4H503.8V62.6H506.5V64.5C506.9 63.8 507.3 63.3 507.6 63C508.1 62.6 508.8 62.3 509.7 62.3C509.8 62.3 509.8 62.3 509.8 62.3C509.8 62.3 509.9 62.3 510 62.3V65.2C509.8 65.2 509.7 65.2 509.5 65.2C509.3 65.2 509.4 65.2 509.3 65.2Z" fill="#E8E5E1"/>
</g>
<defs>
<clipPath id="clip0_3611_4031">
<rect width="510.1" height="77.9" fill="white"/>
</clipPath>
</defs>
</svg>
