<svg width="24" height="24" viewBox="0 0 24 24" fill="none" xmlns="http://www.w3.org/2000/svg">
<mask id="mask0_3076_5009" style="mask-type:luminance" maskUnits="userSpaceOnUse" x="0" y="6" width="24" height="12">
<path d="M0 6V18H24V6H0Z" fill="white"/>
</mask>
<g mask="url(#mask0_3076_5009)">
<path d="M0 6V18H24V6H0Z" fill="#012169"/>
<path d="M0 6L24 18L0 6ZM24 6L0 18L24 6Z" fill="black"/>
<path d="M0 6L24 18M24 6L0 18" stroke="white" stroke-width="2.4"/>
<mask id="mask1_3076_5009" style="mask-type:luminance" maskUnits="userSpaceOnUse" x="0" y="6" width="24" height="12">
<path d="M12 12H24V18L12 12ZM12 12V18H0L12 12ZM12 12H0V6L12 12ZM12 12V6H24L12 12Z" fill="white"/>
</mask>
<g mask="url(#mask1_3076_5009)">
<path d="M0 6L24 18L0 6ZM24 6L0 18L24 6Z" fill="black"/>
<path d="M0 6L24 18M24 6L0 18" stroke="#C8102E" stroke-width="1.6"/>
</g>
<path d="M12 6V18V6ZM0 12H24H0Z" fill="black"/>
<path d="M12 6V18M0 12H24" stroke="white" stroke-width="4"/>
<path d="M12 6V18V6ZM0 12H24H0Z" fill="black"/>
<path d="M12 6V18M0 12H24" stroke="#C8102E" stroke-width="2.4"/>
</g>
</svg>
